<svg width="335" height="95" viewBox="0 0 335 95" fill="none" xmlns="http://www.w3.org/2000/svg">
<path d="M42.2703 0.255193C68.1552 -2.42951 91.3169 16.3741 94.0079 42.2583C96.6999 68.1422 77.9019 91.3092 52.0187 94.0072C26.1258 96.7062 2.94889 77.9002 0.256492 52.0066C-2.43601 26.113 16.3761 2.94099 42.2703 0.255193Z" fill="#0E0040"/>
<path d="M43.5052 19.4269C48.2623 18.9988 53.2199 20.1313 57.4571 22.2977C63.7345 25.5033 68.4742 31.0802 70.6261 37.7922C73.8511 47.8446 71.5891 55.2473 67.0389 64.1073C70.5501 65.0254 71.9471 65.1988 75.4291 65.8891C75.5711 67.5023 75.8831 71.3503 74.9251 72.5483C72.4011 75.7023 64.0611 72.4893 61.5144 70.5523C59.4513 72.3593 57.1707 73.9033 54.7255 75.1463C45.402 79.8313 32.0258 79.5443 24.2547 72.0573C18.7026 66.7073 17.5316 59.7876 19.9443 52.6948C20.5557 51.3565 21.3474 50.108 22.2973 48.9843C27.566 42.7562 36.7322 42.1762 43.6749 45.6994C47.6249 47.7039 50.0625 50.6764 53.1418 53.7079C55.3835 55.9248 57.7137 58.0504 60.1268 60.0795C63.0486 55.0323 64.461 50.1902 63.6357 44.3034C61.8101 31.2828 48.0815 23.5319 36.4371 30.5464C33.4956 32.3183 31.7941 35.0603 29.7968 37.762C26.2782 36.7265 25.1051 36.3023 22.2846 34.0962C26.1788 25.1179 34.1497 20.6611 43.5052 19.4269Z" fill="#D7FF81"/>
<path d="M34.3278 52.1671C41.7072 51.9416 44.4795 56.4288 49.1933 61.2028C51.0163 63.0491 52.4272 64.3041 54.4552 65.9281C51.8625 67.4372 49.9421 68.4012 47.1 69.3242C41.9043 70.5952 35.3636 70.1502 31.0481 66.8132C27.7708 64.2787 25.3175 58.716 28.2667 55.0579C29.8839 53.0521 31.8861 52.456 34.3278 52.1671Z" fill="#0E0040"/>
<path d="M328.554 47.8667C328.607 47.9734 328.74 48.1334 328.954 48.3467C330.287 49.7334 331.3 51.3067 331.994 53.0667C332.74 54.8267 333.247 56.6401 333.514 58.5067C333.674 59.2534 333.834 60.0801 333.994 60.9867C334.154 61.8934 334.18 62.7734 334.074 63.6267C334.02 64.5334 333.78 65.3334 333.354 66.0267C332.98 66.7201 332.287 67.2 331.274 67.4667C330.367 67.7334 329.487 67.6534 328.634 67.2267C327.78 66.8001 327.14 66.1867 326.714 65.3867C326.394 64.7467 326.234 64.08 326.234 63.3867C326.234 62.6934 326.207 62.0001 326.154 61.3067C326.047 59.1734 325.647 57.1467 324.954 55.2267C324.58 54.2667 324.1 53.36 323.514 52.5067C322.927 51.6534 322.154 51.0667 321.194 50.7467C320.181 50.3734 319.14 50.3734 318.074 50.7467C317.06 51.0667 316.127 51.5467 315.274 52.1867C313.78 53.36 312.554 54.7734 311.594 56.4267C310.687 58.08 309.94 59.8134 309.354 61.6267C309.087 62.5334 308.794 63.4134 308.474 64.2667C308.207 65.1201 307.7 65.84 306.954 66.4267C306.474 66.8534 305.887 67.1467 305.194 67.3067C304.501 67.4667 303.834 67.4667 303.194 67.3067C302.554 67.0934 301.967 66.7467 301.434 66.2667C300.954 65.8401 300.58 65.3067 300.314 64.6667C300.154 64.2934 300.047 63.9201 299.994 63.5467C299.94 63.2267 299.861 62.8534 299.754 62.4267C299.114 56.9867 298.82 51.5734 298.874 46.1867C298.927 40.7467 299.38 35.3067 300.234 29.8667C300.34 29.3867 300.447 28.9067 300.554 28.4267C300.66 27.8934 300.9 27.44 301.274 27.0667C301.7 26.64 302.26 26.4 302.954 26.3467C303.647 26.24 304.314 26.2667 304.954 26.4267C305.594 26.5867 306.18 26.88 306.714 27.3067C307.247 27.68 307.647 28.1867 307.914 28.8267C308.127 29.3067 308.207 29.8134 308.154 30.3467C308.154 30.88 308.1 31.3867 307.994 31.8667C307.514 34.8534 307.167 37.8134 306.954 40.7467C306.74 43.68 306.66 46.64 306.714 49.6267C308.047 48.0267 309.647 46.72 311.514 45.7067C313.434 44.6934 315.46 44.1067 317.594 43.9467C319.62 43.84 321.594 44.1334 323.514 44.8267C325.434 45.4667 327.114 46.48 328.554 47.8667Z" fill="#0E0040"/>
<path d="M294.693 51.8666C294.64 53.4666 294.64 55.0666 294.693 56.6666C294.747 58.2132 294.853 59.7866 295.013 61.3866C295.067 61.8666 295.147 62.3466 295.253 62.8266C295.36 63.3599 295.413 63.8399 295.413 64.2666C295.413 64.6932 295.333 65.1199 295.173 65.5466C295.013 65.9732 294.693 66.3466 294.213 66.6666C293.52 67.1466 292.747 67.4132 291.893 67.4666C291.04 67.5199 290.267 67.3066 289.573 66.8266C288.827 66.3466 288.24 65.6799 287.813 64.8266C287.387 63.9732 287.04 63.0932 286.773 62.1866C285.44 62.8799 284.107 63.5199 282.773 64.1066C281.44 64.7466 280.08 65.3332 278.693 65.8666C277.2 66.3999 275.68 66.7999 274.133 67.0666C272.587 67.3866 271.04 67.4132 269.493 67.1466C268.267 66.9332 267.093 66.5066 265.973 65.8666C264.853 65.2799 263.867 64.5332 263.013 63.6266C262.16 62.7199 261.44 61.6799 260.853 60.5066C260.32 59.3866 259.973 58.1866 259.813 56.9066C259.653 55.6266 259.733 54.3732 260.053 53.1466C260.373 51.9199 260.853 50.7732 261.493 49.7066C262.133 48.5866 262.907 47.5999 263.813 46.7466C264.773 45.8932 265.84 45.2266 267.013 44.7466C268.72 44.0532 270.507 43.7599 272.373 43.8666C274.293 43.9732 276.107 44.3732 277.813 45.0666C279.52 45.7066 281.093 46.5866 282.533 47.7066C284.027 48.7732 285.44 49.9732 286.773 51.3066C286.933 49.1732 287.093 47.0666 287.253 44.9866C287.413 42.9066 287.467 40.7999 287.413 38.6666C287.413 37.9199 287.333 37.1466 287.173 36.3466C287.067 35.5466 286.747 34.8532 286.213 34.2666C285.573 33.6266 284.667 33.1732 283.493 32.9066C281.467 32.4266 279.467 32.6399 277.493 33.5466C275.52 34.3999 274 35.7332 272.933 37.5466C272.773 37.8132 272.587 38.1066 272.373 38.4266C272.213 38.7466 272 39.0399 271.733 39.3066C271.147 39.9466 270.373 40.2399 269.413 40.1866C268.453 40.1332 267.6 39.8932 266.853 39.4666C266.427 39.1999 266.027 38.8799 265.653 38.5066C265.333 38.1332 265.12 37.7066 265.013 37.2266C264.907 36.6932 264.907 36.1866 265.013 35.7066C265.12 35.1732 265.307 34.6932 265.573 34.2666C266.8 31.8666 268.613 29.9999 271.013 28.6666C273.413 27.2799 275.973 26.4532 278.693 26.1866C280.133 26.0799 281.573 26.1066 283.013 26.2666C284.453 26.3732 285.867 26.7199 287.253 27.3066C288.587 27.8932 289.813 28.6666 290.933 29.6266C292.053 30.5332 292.96 31.6266 293.653 32.9066C294.72 34.8799 295.253 37.0132 295.253 39.3066C295.253 41.5466 295.173 43.7866 295.013 46.0266C294.907 47.0399 294.827 48.0266 294.773 48.9866C294.773 49.9466 294.747 50.9066 294.693 51.8666ZM272.293 60.4266C273.947 60.0532 275.653 59.5466 277.413 58.9066C279.173 58.2132 280.667 57.3332 281.893 56.2666C281.52 55.3599 280.8 54.4532 279.733 53.5466C278.72 52.6399 277.787 51.9466 276.933 51.4666C275.867 50.8799 274.72 50.5599 273.493 50.5066C272.32 50.3999 271.227 50.6666 270.213 51.3066C269.147 51.9999 268.4 52.9866 267.973 54.2666C267.6 55.5466 267.547 56.7999 267.813 58.0266C267.92 58.5066 268.053 58.9866 268.213 59.4666C268.427 59.8932 268.747 60.2132 269.173 60.4266C269.6 60.6932 270.027 60.7999 270.453 60.7466C270.88 60.7466 271.307 60.6932 271.733 60.5866L272.293 60.4266Z" fill="#0E0040"/>
<path d="M256.984 26.0267C257.517 26.08 258.024 26.24 258.504 26.5067C259.037 26.7733 259.464 27.0667 259.784 27.3867C260.05 27.6533 260.317 28.0267 260.584 28.5067C260.85 28.9867 260.957 29.44 260.904 29.8667C260.797 30.1333 260.717 30.4267 260.664 30.7467C260.664 31.0667 260.637 31.3867 260.584 31.7067C259.677 36.72 258.53 41.7333 257.144 46.7467C255.81 51.76 253.944 56.5333 251.544 61.0667C250.957 62.1333 250.317 63.1467 249.624 64.1067C248.984 65.12 248.157 65.9467 247.144 66.5867C245.917 67.28 244.717 67.6 243.544 67.5467C242.424 67.4933 241.384 67.1733 240.424 66.5867C239.464 66 238.61 65.2 237.864 64.1867C237.17 63.2267 236.637 62.1867 236.264 61.0667C235.837 59.84 235.544 58.56 235.384 57.2267C235.224 55.8933 235.01 54.5867 234.744 53.3067C234.477 51.9733 234.237 50.6667 234.024 49.3867C233.81 48.1067 233.57 46.8 233.304 45.4667C232.877 42.7467 232.477 40.0267 232.104 37.3067C231.73 34.5867 231.357 31.8667 230.984 29.1467C230.93 28.72 231.037 28.32 231.304 27.9467C231.57 27.5733 231.864 27.2533 232.184 26.9867C232.61 26.6667 233.064 26.48 233.544 26.4267C234.024 26.32 234.504 26.2933 234.984 26.3467C236.05 26.5067 236.984 26.96 237.784 27.7067C238.104 28.0267 238.344 28.4267 238.504 28.9067C238.717 29.28 238.824 29.7067 238.824 30.1867C238.93 30.9867 239.037 31.7867 239.144 32.5867C239.25 33.3867 239.357 34.1867 239.464 34.9867C239.57 35.8933 239.677 36.8267 239.784 37.7867C239.944 38.6933 240.104 39.6 240.264 40.5067C240.53 42.32 240.797 44.1333 241.064 45.9467C241.384 47.7067 241.73 49.4933 242.104 51.3067C242.264 52.2133 242.424 53.12 242.584 54.0267C242.744 54.88 242.904 55.76 243.064 56.6667L243.544 59.0667C243.65 58.96 243.704 58.8533 243.704 58.7467C243.757 58.64 243.837 58.5333 243.944 58.4267C244.424 57.5733 244.85 56.6933 245.224 55.7867C245.597 54.88 245.97 53.9733 246.344 53.0667C247.73 49.4933 248.93 45.8667 249.944 42.1867C251.01 38.5067 251.917 34.7733 252.664 30.9867C252.77 30.6133 252.824 30.2667 252.824 29.9467C252.877 29.5733 252.957 29.2 253.064 28.8267C253.064 28.1867 253.25 27.6533 253.624 27.2267L254.264 26.5867C254.69 26.32 255.144 26.16 255.624 26.1067C256.104 26 256.557 25.9733 256.984 26.0267Z" fill="#0E0040"/>
<path d="M226.803 51.8666C226.749 53.4666 226.749 55.0666 226.803 56.6666C226.856 58.2132 226.963 59.7866 227.123 61.3866C227.176 61.8666 227.256 62.3466 227.363 62.8266C227.469 63.3599 227.523 63.8399 227.523 64.2666C227.523 64.6932 227.443 65.1199 227.283 65.5466C227.123 65.9732 226.803 66.3466 226.323 66.6666C225.629 67.1466 224.856 67.4132 224.003 67.4666C223.149 67.5199 222.376 67.3066 221.683 66.8266C220.936 66.3466 220.349 65.6799 219.923 64.8266C219.496 63.9732 219.149 63.0932 218.883 62.1866C217.549 62.8799 216.216 63.5199 214.883 64.1066C213.549 64.7466 212.189 65.3332 210.803 65.8666C209.309 66.3999 207.789 66.7999 206.243 67.0666C204.696 67.3866 203.149 67.4132 201.603 67.1466C200.376 66.9332 199.203 66.5066 198.083 65.8666C196.963 65.2799 195.976 64.5332 195.123 63.6266C194.269 62.7199 193.549 61.6799 192.963 60.5066C192.429 59.3866 192.083 58.1866 191.923 56.9066C191.763 55.6266 191.843 54.3732 192.163 53.1466C192.483 51.9199 192.963 50.7732 193.603 49.7066C194.243 48.5866 195.016 47.5999 195.923 46.7466C196.883 45.8932 197.949 45.2266 199.123 44.7466C200.829 44.0532 202.616 43.7599 204.483 43.8666C206.403 43.9732 208.216 44.3732 209.923 45.0666C211.629 45.7066 213.203 46.5866 214.643 47.7066C216.136 48.7732 217.549 49.9732 218.883 51.3066C219.043 49.1732 219.203 47.0666 219.363 44.9866C219.523 42.9066 219.576 40.7999 219.523 38.6666C219.523 37.9199 219.443 37.1466 219.283 36.3466C219.176 35.5466 218.856 34.8532 218.323 34.2666C217.683 33.6266 216.776 33.1732 215.603 32.9066C213.576 32.4266 211.576 32.6399 209.603 33.5466C207.629 34.3999 206.109 35.7332 205.043 37.5466C204.883 37.8132 204.696 38.1066 204.483 38.4266C204.323 38.7466 204.109 39.0399 203.843 39.3066C203.256 39.9466 202.483 40.2399 201.523 40.1866C200.563 40.1332 199.709 39.8932 198.963 39.4666C198.536 39.1999 198.136 38.8799 197.763 38.5066C197.443 38.1332 197.229 37.7066 197.123 37.2266C197.016 36.6932 197.016 36.1866 197.123 35.7066C197.229 35.1732 197.416 34.6932 197.683 34.2666C198.909 31.8666 200.723 29.9999 203.123 28.6666C205.523 27.2799 208.083 26.4532 210.803 26.1866C212.243 26.0799 213.683 26.1066 215.123 26.2666C216.563 26.3732 217.976 26.7199 219.363 27.3066C220.696 27.8932 221.923 28.6666 223.043 29.6266C224.163 30.5332 225.069 31.6266 225.763 32.9066C226.829 34.8799 227.363 37.0132 227.363 39.3066C227.363 41.5466 227.283 43.7866 227.123 46.0266C227.016 47.0399 226.936 48.0266 226.883 48.9866C226.883 49.9466 226.856 50.9066 226.803 51.8666ZM204.403 60.4266C206.056 60.0532 207.763 59.5466 209.523 58.9066C211.283 58.2132 212.776 57.3332 214.003 56.2666C213.629 55.3599 212.909 54.4532 211.843 53.5466C210.829 52.6399 209.896 51.9466 209.043 51.4666C207.976 50.8799 206.829 50.5599 205.603 50.5066C204.429 50.3999 203.336 50.6666 202.323 51.3066C201.256 51.9999 200.509 52.9866 200.083 54.2666C199.709 55.5466 199.656 56.7999 199.923 58.0266C200.029 58.5066 200.163 58.9866 200.323 59.4666C200.536 59.8932 200.856 60.2132 201.283 60.4266C201.709 60.6932 202.136 60.7999 202.563 60.7466C202.989 60.7466 203.416 60.6932 203.843 60.5866L204.403 60.4266Z" fill="#0E0040"/>
<path d="M183.085 47.8667C183.138 47.9734 183.272 48.1334 183.485 48.3467C184.818 49.7334 185.832 51.3067 186.525 53.0667C187.272 54.8267 187.778 56.6401 188.045 58.5067C188.205 59.2534 188.365 60.0801 188.525 60.9867C188.685 61.8934 188.712 62.7734 188.605 63.6267C188.552 64.5334 188.312 65.3334 187.885 66.0267C187.512 66.7201 186.818 67.2 185.805 67.4667C184.898 67.7334 184.018 67.6534 183.165 67.2267C182.312 66.8001 181.672 66.1867 181.245 65.3867C180.925 64.7467 180.765 64.08 180.765 63.3867C180.765 62.6934 180.738 62.0001 180.685 61.3067C180.578 59.1734 180.178 57.1467 179.485 55.2267C179.112 54.2667 178.632 53.36 178.045 52.5067C177.458 51.6534 176.685 51.0667 175.725 50.7467C174.712 50.3734 173.672 50.3734 172.605 50.7467C171.592 51.0667 170.658 51.5467 169.805 52.1867C168.312 53.36 167.085 54.7734 166.125 56.4267C165.218 58.08 164.472 59.8134 163.885 61.6267C163.618 62.5334 163.325 63.4134 163.005 64.2667C162.738 65.1201 162.232 65.84 161.485 66.4267C161.005 66.8534 160.418 67.1467 159.725 67.3067C159.032 67.4667 158.365 67.4667 157.725 67.3067C157.085 67.0934 156.498 66.7467 155.965 66.2667C155.485 65.8401 155.112 65.3067 154.845 64.6667C154.685 64.2934 154.578 63.9201 154.525 63.5467C154.472 63.2267 154.392 62.8534 154.285 62.4267C153.645 56.9867 153.352 51.5734 153.405 46.1867C153.458 40.7467 153.912 35.3067 154.765 29.8667C154.872 29.3867 154.978 28.9067 155.085 28.4267C155.192 27.8934 155.432 27.44 155.805 27.0667C156.232 26.64 156.792 26.4 157.485 26.3467C158.178 26.24 158.845 26.2667 159.485 26.4267C160.125 26.5867 160.712 26.88 161.245 27.3067C161.778 27.68 162.178 28.1867 162.445 28.8267C162.658 29.3067 162.738 29.8134 162.685 30.3467C162.685 30.88 162.632 31.3867 162.525 31.8667C162.045 34.8534 161.698 37.8134 161.485 40.7467C161.272 43.68 161.192 46.64 161.245 49.6267C162.578 48.0267 164.178 46.72 166.045 45.7067C167.965 44.6934 169.992 44.1067 172.125 43.9467C174.152 43.84 176.125 44.1334 178.045 44.8267C179.965 45.4667 181.645 46.48 183.085 47.8667Z" fill="#0E0040"/>
<path d="M149.225 51.8666C149.171 53.4666 149.171 55.0666 149.225 56.6666C149.278 58.2132 149.385 59.7866 149.545 61.3866C149.598 61.8666 149.678 62.3466 149.785 62.8266C149.891 63.3599 149.945 63.8399 149.945 64.2666C149.945 64.6932 149.865 65.1199 149.705 65.5466C149.545 65.9732 149.225 66.3466 148.745 66.6666C148.051 67.1466 147.278 67.4132 146.425 67.4666C145.571 67.5199 144.798 67.3066 144.105 66.8266C143.358 66.3466 142.771 65.6799 142.345 64.8266C141.918 63.9732 141.571 63.0932 141.305 62.1866C139.971 62.8799 138.638 63.5199 137.305 64.1066C135.971 64.7466 134.611 65.3332 133.225 65.8666C131.731 66.3999 130.211 66.7999 128.665 67.0666C127.118 67.3866 125.571 67.4132 124.025 67.1466C122.798 66.9332 121.625 66.5066 120.505 65.8666C119.385 65.2799 118.398 64.5332 117.545 63.6266C116.691 62.7199 115.971 61.6799 115.385 60.5066C114.851 59.3866 114.505 58.1866 114.345 56.9066C114.185 55.6266 114.265 54.3732 114.585 53.1466C114.905 51.9199 115.385 50.7732 116.025 49.7066C116.665 48.5866 117.438 47.5999 118.345 46.7466C119.305 45.8932 120.371 45.2266 121.545 44.7466C123.251 44.0532 125.038 43.7599 126.905 43.8666C128.825 43.9732 130.638 44.3732 132.345 45.0666C134.051 45.7066 135.625 46.5866 137.065 47.7066C138.558 48.7732 139.971 49.9732 141.305 51.3066C141.465 49.1732 141.625 47.0666 141.785 44.9866C141.945 42.9066 141.998 40.7999 141.945 38.6666C141.945 37.9199 141.865 37.1466 141.705 36.3466C141.598 35.5466 141.278 34.8532 140.745 34.2666C140.105 33.6266 139.198 33.1732 138.025 32.9066C135.998 32.4266 133.998 32.6399 132.025 33.5466C130.051 34.3999 128.531 35.7332 127.465 37.5466C127.305 37.8132 127.118 38.1066 126.905 38.4266C126.745 38.7466 126.531 39.0399 126.265 39.3066C125.678 39.9466 124.905 40.2399 123.945 40.1866C122.985 40.1332 122.131 39.8932 121.385 39.4666C120.958 39.1999 120.558 38.8799 120.185 38.5066C119.865 38.1332 119.651 37.7066 119.545 37.2266C119.438 36.6932 119.438 36.1866 119.545 35.7066C119.651 35.1732 119.838 34.6932 120.105 34.2666C121.331 31.8666 123.145 29.9999 125.545 28.6666C127.945 27.2799 130.505 26.4532 133.225 26.1866C134.665 26.0799 136.105 26.1066 137.545 26.2666C138.985 26.3732 140.398 26.7199 141.785 27.3066C143.118 27.8932 144.345 28.6666 145.465 29.6266C146.585 30.5332 147.491 31.6266 148.185 32.9066C149.251 34.8799 149.785 37.0132 149.785 39.3066C149.785 41.5466 149.705 43.7866 149.545 46.0266C149.438 47.0399 149.358 48.0266 149.305 48.9866C149.305 49.9466 149.278 50.9066 149.225 51.8666ZM126.825 60.4266C128.478 60.0532 130.185 59.5466 131.945 58.9066C133.705 58.2132 135.198 57.3332 136.425 56.2666C136.051 55.3599 135.331 54.4532 134.265 53.5466C133.251 52.6399 132.318 51.9466 131.465 51.4666C130.398 50.8799 129.251 50.5599 128.025 50.5066C126.851 50.3999 125.758 50.6666 124.745 51.3066C123.678 51.9999 122.931 52.9866 122.505 54.2666C122.131 55.5466 122.078 56.7999 122.345 58.0266C122.451 58.5066 122.585 58.9866 122.745 59.4666C122.958 59.8932 123.278 60.2132 123.705 60.4266C124.131 60.6932 124.558 60.7999 124.985 60.7466C125.411 60.7466 125.838 60.6932 126.265 60.5866L126.825 60.4266Z" fill="#0E0040"/>
</svg>
