<svg width="468" height="145" viewBox="0 0 468 145" fill="none" xmlns="http://www.w3.org/2000/svg">
<path d="M0 30C0 13.4315 13.4315 0 30 0H115C131.569 0 145 13.4315 145 30V115C145 131.569 131.569 145 115 145H30C13.4315 145 0 131.569 0 115V30Z" fill="#D7FF81"/>
<path d="M67.069 22.1557C75.347 21.4108 83.9739 23.3815 91.3472 27.1513C102.271 32.7295 110.518 42.4341 114.263 54.1139C119.875 71.6064 115.939 84.4881 108.021 99.9057C114.131 101.503 116.562 101.805 122.621 103.006C122.868 105.814 123.411 112.51 121.744 114.594C117.352 120.083 102.839 114.492 98.4074 111.121C94.8173 114.265 90.8488 116.952 86.5938 119.115C70.3696 127.268 47.0932 126.768 33.5704 113.74C23.909 104.43 21.8713 92.3889 26.0698 80.0464C27.1337 77.7176 28.5113 75.545 30.1643 73.5896C39.3326 62.7519 55.283 61.7426 67.3643 67.8735C74.2378 71.3616 78.4795 76.5341 83.8379 81.8093C87.7388 85.6671 91.7937 89.3659 95.9928 92.8968C101.077 84.114 103.535 75.6881 102.099 65.4442C98.922 42.7866 75.0323 29.299 54.7695 41.5052C49.6509 44.5885 46.69 49.36 43.2145 54.0613C37.0916 52.2594 35.0503 51.5212 30.1422 47.6823C36.9186 32.0588 50.7891 24.3034 67.069 22.1557Z" fill="#0E0040"/>
<path d="M51.0994 79.1284C63.9406 78.736 68.7648 86.5444 76.9674 94.8518C80.1397 98.0646 82.5948 100.248 86.1238 103.074C81.6122 105.701 78.2704 107.378 73.3248 108.984C64.2836 111.196 52.9018 110.421 45.3923 104.615C39.6893 100.204 35.4202 90.5244 40.5523 84.1588C43.3664 80.6685 46.8505 79.6312 51.0994 79.1284Z" fill="#D7FF81"/>
<path d="M434.664 108.14C430.664 108.14 427.037 107.1 423.784 105.02C420.53 102.993 417.944 100.247 416.024 96.78C414.157 93.26 413.224 89.34 413.224 85.02C413.224 80.9666 413.97 77.3133 415.464 74.06C416.957 70.7533 418.984 67.9266 421.544 65.58C424.157 63.2333 427.117 61.4466 430.424 60.22C433.73 58.94 437.197 58.3 440.824 58.3C443.864 58.3 446.85 58.7266 449.784 59.58C449.997 58.46 450.184 57.34 450.344 56.22L464.024 58.54C463.65 59.5533 463.277 61.0733 462.904 63.1C462.53 65.1266 462.21 67.3933 461.944 69.9C461.73 72.4066 461.544 74.9133 461.384 77.42C461.224 79.9266 461.144 82.1933 461.144 84.22C461.144 85.8733 461.25 87.5 461.464 89.1C461.73 90.6466 462.264 91.9266 463.064 92.94C463.864 93.9 465.09 94.38 466.744 94.38H467.864L465.864 108.3C462.344 108.3 459.437 107.687 457.144 106.46C454.85 105.287 453.01 103.687 451.624 101.66C449.33 104.22 446.717 105.927 443.784 106.78C440.85 107.687 437.81 108.14 434.664 108.14ZM426.344 86.62C426.61 89.18 427.65 91.2333 429.464 92.78C431.33 94.2733 433.677 95.02 436.504 95.02C439.224 95.02 441.49 94.3 443.304 92.86C445.117 91.3666 446.61 89.34 447.784 86.78C447.73 85.9266 447.704 85.0466 447.704 84.14C447.704 82.2733 447.757 80.3533 447.864 78.38C447.97 76.4066 448.104 74.46 448.264 72.54C446.024 71.6866 443.677 71.26 441.224 71.26C438.344 71.26 435.757 71.8466 433.464 73.02C431.224 74.14 429.464 75.7133 428.184 77.74C426.904 79.7666 426.264 82.1133 426.264 84.78C426.264 85.1 426.264 85.42 426.264 85.74C426.264 86.06 426.29 86.3533 426.344 86.62Z" fill="white"/>
<path d="M380.513 108.06C378.326 108.06 376.433 107.42 374.833 106.14C373.233 104.86 371.846 103.287 370.673 101.42C369.499 99.5533 368.459 97.74 367.553 95.98C365.899 92.62 364.326 88.94 362.833 84.94C361.339 80.94 360.033 76.78 358.913 72.46C357.793 68.14 356.939 63.8733 356.353 59.66L370.833 57.58C371.259 62.54 371.926 67.2067 372.833 71.58C373.739 75.9533 374.806 79.8467 376.033 83.26C377.259 86.6734 378.513 89.4467 379.793 91.58C380.059 91.9534 380.299 92.3267 380.513 92.7C380.779 93.0733 380.913 93.26 380.913 93.26C381.019 93.26 381.446 92.7 382.193 91.58C384.539 87.4734 386.726 82.6733 388.753 77.18C390.779 71.6867 392.539 65.0467 394.033 57.26L408.113 60.06C406.726 65.0733 405.446 69.4467 404.273 73.18C403.099 76.86 401.953 80.0867 400.833 82.86C399.713 85.6334 398.593 88.14 397.473 90.38C396.353 92.5667 395.179 94.7 393.953 96.78C393.153 98.22 392.113 99.82 390.833 101.58C389.606 103.34 388.139 104.86 386.433 106.14C384.726 107.42 382.753 108.06 380.513 108.06Z" fill="white"/>
<path d="M319.351 108.14C315.351 108.14 311.724 107.1 308.471 105.02C305.218 102.993 302.631 100.247 300.711 96.78C298.844 93.26 297.911 89.34 297.911 85.02C297.911 80.9666 298.658 77.3133 300.151 74.06C301.644 70.7533 303.671 67.9266 306.231 65.58C308.844 63.2333 311.804 61.4466 315.111 60.22C318.418 58.94 321.884 58.3 325.511 58.3C328.551 58.3 331.538 58.7266 334.471 59.58C334.684 58.46 334.871 57.34 335.031 56.22L348.711 58.54C348.338 59.5533 347.964 61.0733 347.591 63.1C347.218 65.1266 346.898 67.3933 346.631 69.9C346.418 72.4066 346.231 74.9133 346.071 77.42C345.911 79.9266 345.831 82.1933 345.831 84.22C345.831 85.8733 345.938 87.5 346.151 89.1C346.418 90.6466 346.951 91.9266 347.751 92.94C348.551 93.9 349.778 94.38 351.431 94.38H352.551L350.551 108.3C347.031 108.3 344.124 107.687 341.831 106.46C339.538 105.287 337.698 103.687 336.311 101.66C334.018 104.22 331.404 105.927 328.471 106.78C325.538 107.687 322.498 108.14 319.351 108.14ZM311.031 86.62C311.298 89.18 312.338 91.2333 314.151 92.78C316.018 94.2733 318.364 95.02 321.191 95.02C323.911 95.02 326.178 94.3 327.991 92.86C329.804 91.3666 331.298 89.34 332.471 86.78C332.418 85.9266 332.391 85.0466 332.391 84.14C332.391 82.2733 332.444 80.3533 332.551 78.38C332.658 76.4066 332.791 74.46 332.951 72.54C330.711 71.6866 328.364 71.26 325.911 71.26C323.031 71.26 320.444 71.8466 318.151 73.02C315.911 74.14 314.151 75.7133 312.871 77.74C311.591 79.7666 310.951 82.1133 310.951 84.78C310.951 85.1 310.951 85.42 310.951 85.74C310.951 86.06 310.978 86.3533 311.031 86.62Z" fill="white"/>
<path d="M246.853 107.34C246.853 104.087 246.853 99.9268 246.853 94.8602C246.906 89.7402 246.96 84.0602 247.013 77.8202C247.12 71.5802 247.253 65.0202 247.413 58.1402C247.626 51.2602 247.866 44.3802 248.133 37.5002L261.733 37.4202C261.52 40.4602 261.306 44.1668 261.093 48.5402C260.88 52.9135 260.693 57.6068 260.533 62.6202C264.213 59.2068 268.426 57.5002 273.173 57.5002C276.426 57.5002 279.12 58.0868 281.253 59.2602C283.44 60.4335 285.2 61.9802 286.533 63.9002C287.866 65.7668 288.88 67.8202 289.573 70.0602C290.266 72.3002 290.746 74.5135 291.013 76.7002C291.28 78.8335 291.413 80.7268 291.413 82.3802C291.413 85.9002 291.386 89.3935 291.333 92.8602C291.28 96.3268 291.226 99.3668 291.173 101.98C291.173 104.594 291.173 106.434 291.173 107.5L277.173 107.58C277.386 105.5 277.52 103.1 277.573 100.38C277.68 97.6602 277.733 94.8602 277.733 91.9802C277.786 89.0468 277.813 86.2735 277.813 83.6602C277.813 75.0202 275.786 70.7002 271.733 70.7002C270.506 70.7002 269.146 71.0202 267.653 71.6602C266.16 72.3002 264.72 73.3135 263.333 74.7002C262 76.0868 260.933 77.9268 260.133 80.2202C260.08 83.7402 260.053 87.1535 260.053 90.4602C260.053 93.5002 260.08 96.3535 260.133 99.0202C260.24 101.634 260.32 104.274 260.373 106.94L246.853 107.34Z" fill="white"/>
<path d="M188.68 107.5L175 104.94C177.56 94.5933 180.227 85.2333 183 76.86C185.827 68.4866 188.733 61.3133 191.72 55.3399C194.707 49.3666 197.747 44.78 200.84 41.58C203.987 38.3266 207.133 36.7 210.28 36.7C216.627 36.7 222.467 42.5933 227.8 54.3799C233.133 66.1133 237.667 83.1266 241.4 105.42L227.24 107.34C226.6 103.82 225.907 100.22 225.16 96.54C224.413 92.8066 223.64 89.18 222.84 85.66C221.56 85.6066 220.173 85.58 218.68 85.58C216.067 85.58 213.293 85.6333 210.36 85.74C207.48 85.8466 204.627 86.0333 201.8 86.2999C199.027 86.5133 196.44 86.7533 194.04 87.02C193.027 90.4333 192.04 93.9 191.08 97.42C190.173 100.887 189.373 104.247 188.68 107.5ZM203.4 60.78C202.227 63.2866 200.653 67.3399 198.68 72.9399C200.973 72.6733 203.4 72.4866 205.96 72.38C208.52 72.22 211.027 72.14 213.48 72.14C215.56 72.14 217.56 72.1933 219.48 72.2999C218.733 69.5799 218.013 67.1533 217.32 65.02C216.68 62.8866 216.093 61.2066 215.56 59.98C214.44 57.1 213.453 55.0733 212.6 53.9C211.747 52.6733 210.867 52.0599 209.96 52.0599C209 52.0599 208.04 52.6999 207.08 53.9799C206.12 55.2066 204.893 57.4733 203.4 60.78Z" fill="white"/>
</svg>
