<svg width="293" height="238" viewBox="0 0 293 238" fill="none" xmlns="http://www.w3.org/2000/svg">
<path d="M73.9319 30C73.9319 13.4315 87.3633 0 103.932 0H188.932C205.5 0 218.932 13.4315 218.932 30V115C218.932 131.569 205.5 145 188.932 145H103.932C87.3633 145 73.9319 131.569 73.9319 115V30Z" fill="#0E0040"/>
<path d="M141.001 22.1557C149.279 21.4108 157.906 23.3815 165.279 27.1513C176.203 32.7295 184.45 42.4341 188.195 54.1139C193.807 71.6064 189.871 84.4881 181.953 99.9057C188.063 101.503 190.494 101.805 196.553 103.006C196.8 105.814 197.343 112.51 195.676 114.594C191.284 120.083 176.771 114.492 172.339 111.121C168.749 114.265 164.781 116.952 160.526 119.115C144.302 127.268 121.025 126.768 107.502 113.74C97.8409 104.43 95.8032 92.3889 100.002 80.0464C101.066 77.7176 102.443 75.545 104.096 73.5896C113.264 62.7519 129.215 61.7426 141.296 67.8735C148.17 71.3616 152.411 76.5341 157.77 81.8093C161.671 85.6671 165.726 89.3659 169.925 92.8968C175.009 84.114 177.467 75.6881 176.031 65.4442C172.854 42.7866 148.964 29.299 128.701 41.5052C123.583 44.5885 120.622 49.36 117.146 54.0613C111.023 52.2594 108.982 51.5212 104.074 47.6823C110.851 32.0588 124.721 24.3034 141.001 22.1557Z" fill="#D7FF81"/>
<path d="M125.031 79.1284C137.872 78.736 142.697 86.5444 150.899 94.8518C154.072 98.0646 156.527 100.248 160.056 103.074C155.544 105.701 152.202 107.378 147.257 108.984C138.215 111.196 126.834 110.421 119.324 104.615C113.621 100.204 109.352 90.5244 114.484 84.1588C117.298 80.6685 120.782 79.6312 125.031 79.1284Z" fill="#0E0040"/>
<path d="M259.664 237.44C255.664 237.44 252.037 236.4 248.784 234.32C245.53 232.293 242.944 229.547 241.024 226.08C239.157 222.56 238.224 218.64 238.224 214.32C238.224 210.267 238.97 206.613 240.464 203.36C241.957 200.053 243.984 197.227 246.544 194.88C249.157 192.533 252.117 190.747 255.424 189.52C258.73 188.24 262.197 187.6 265.824 187.6C268.864 187.6 271.85 188.027 274.784 188.88C274.997 187.76 275.184 186.64 275.344 185.52L289.024 187.84C288.65 188.853 288.277 190.373 287.904 192.4C287.53 194.427 287.21 196.693 286.944 199.2C286.73 201.707 286.544 204.213 286.384 206.72C286.224 209.227 286.144 211.493 286.144 213.52C286.144 215.173 286.25 216.8 286.464 218.4C286.73 219.947 287.264 221.227 288.064 222.24C288.864 223.2 290.09 223.68 291.744 223.68H292.864L290.864 237.6C287.344 237.6 284.437 236.987 282.144 235.76C279.85 234.587 278.01 232.987 276.624 230.96C274.33 233.52 271.717 235.227 268.784 236.08C265.85 236.987 262.81 237.44 259.664 237.44ZM251.344 215.92C251.61 218.48 252.65 220.533 254.464 222.08C256.33 223.573 258.677 224.32 261.504 224.32C264.224 224.32 266.49 223.6 268.304 222.16C270.117 220.667 271.61 218.64 272.784 216.08C272.73 215.227 272.704 214.347 272.704 213.44C272.704 211.573 272.757 209.653 272.864 207.68C272.97 205.707 273.104 203.76 273.264 201.84C271.024 200.987 268.677 200.56 266.224 200.56C263.344 200.56 260.757 201.147 258.464 202.32C256.224 203.44 254.464 205.013 253.184 207.04C251.904 209.067 251.264 211.413 251.264 214.08C251.264 214.4 251.264 214.72 251.264 215.04C251.264 215.36 251.29 215.653 251.344 215.92Z" fill="#0E0040"/>
<path d="M205.513 237.36C203.326 237.36 201.433 236.72 199.833 235.44C198.233 234.16 196.846 232.587 195.673 230.72C194.499 228.853 193.459 227.04 192.553 225.28C190.899 221.92 189.326 218.24 187.833 214.24C186.339 210.24 185.033 206.08 183.913 201.76C182.793 197.44 181.939 193.173 181.353 188.96L195.833 186.88C196.259 191.84 196.926 196.507 197.833 200.88C198.739 205.253 199.806 209.147 201.033 212.56C202.259 215.973 203.513 218.747 204.793 220.88C205.059 221.253 205.299 221.627 205.513 222C205.779 222.373 205.913 222.56 205.913 222.56C206.019 222.56 206.446 222 207.193 220.88C209.539 216.773 211.726 211.973 213.753 206.48C215.779 200.987 217.539 194.347 219.033 186.56L233.113 189.36C231.726 194.373 230.446 198.747 229.273 202.48C228.099 206.16 226.953 209.387 225.833 212.16C224.713 214.933 223.593 217.44 222.473 219.68C221.353 221.867 220.179 224 218.953 226.08C218.153 227.52 217.113 229.12 215.833 230.88C214.606 232.64 213.139 234.16 211.433 235.44C209.726 236.72 207.753 237.36 205.513 237.36Z" fill="#0E0040"/>
<path d="M144.351 237.44C140.351 237.44 136.724 236.4 133.471 234.32C130.218 232.293 127.631 229.547 125.711 226.08C123.844 222.56 122.911 218.64 122.911 214.32C122.911 210.267 123.658 206.613 125.151 203.36C126.644 200.053 128.671 197.227 131.231 194.88C133.844 192.533 136.804 190.747 140.111 189.52C143.418 188.24 146.884 187.6 150.511 187.6C153.551 187.6 156.538 188.027 159.471 188.88C159.684 187.76 159.871 186.64 160.031 185.52L173.711 187.84C173.338 188.853 172.964 190.373 172.591 192.4C172.218 194.427 171.898 196.693 171.631 199.2C171.418 201.707 171.231 204.213 171.071 206.72C170.911 209.227 170.831 211.493 170.831 213.52C170.831 215.173 170.938 216.8 171.151 218.4C171.418 219.947 171.951 221.227 172.751 222.24C173.551 223.2 174.778 223.68 176.431 223.68H177.551L175.551 237.6C172.031 237.6 169.124 236.987 166.831 235.76C164.538 234.587 162.698 232.987 161.311 230.96C159.018 233.52 156.404 235.227 153.471 236.08C150.538 236.987 147.498 237.44 144.351 237.44ZM136.031 215.92C136.298 218.48 137.338 220.533 139.151 222.08C141.018 223.573 143.364 224.32 146.191 224.32C148.911 224.32 151.178 223.6 152.991 222.16C154.804 220.667 156.298 218.64 157.471 216.08C157.418 215.227 157.391 214.347 157.391 213.44C157.391 211.573 157.444 209.653 157.551 207.68C157.658 205.707 157.791 203.76 157.951 201.84C155.711 200.987 153.364 200.56 150.911 200.56C148.031 200.56 145.444 201.147 143.151 202.32C140.911 203.44 139.151 205.013 137.871 207.04C136.591 209.067 135.951 211.413 135.951 214.08C135.951 214.4 135.951 214.72 135.951 215.04C135.951 215.36 135.978 215.653 136.031 215.92Z" fill="#0E0040"/>
<path d="M71.853 236.64C71.853 233.387 71.853 229.227 71.853 224.16C71.9064 219.04 71.9597 213.36 72.013 207.12C72.1197 200.88 72.253 194.32 72.413 187.44C72.6264 180.56 72.8664 173.68 73.133 166.8L86.733 166.72C86.5197 169.76 86.3064 173.467 86.093 177.84C85.8797 182.214 85.693 186.907 85.533 191.92C89.213 188.507 93.4264 186.8 98.173 186.8C101.426 186.8 104.12 187.387 106.253 188.56C108.44 189.734 110.2 191.28 111.533 193.2C112.866 195.067 113.88 197.12 114.573 199.36C115.266 201.6 115.746 203.814 116.013 206C116.28 208.134 116.413 210.027 116.413 211.68C116.413 215.2 116.386 218.694 116.333 222.16C116.28 225.627 116.226 228.667 116.173 231.28C116.173 233.894 116.173 235.734 116.173 236.8L102.173 236.88C102.386 234.8 102.52 232.4 102.573 229.68C102.68 226.96 102.733 224.16 102.733 221.28C102.786 218.347 102.813 215.574 102.813 212.96C102.813 204.32 100.786 200 96.733 200C95.5064 200 94.1464 200.32 92.653 200.96C91.1597 201.6 89.7197 202.614 88.333 204C86.9997 205.387 85.933 207.227 85.133 209.52C85.0797 213.04 85.053 216.454 85.053 219.76C85.053 222.8 85.0797 225.654 85.133 228.32C85.2397 230.934 85.3197 233.574 85.373 236.24L71.853 236.64Z" fill="#0E0040"/>
<path d="M13.68 236.8L0 234.24C2.56 223.893 5.22667 214.533 8 206.16C10.8267 197.787 13.7333 190.613 16.72 184.64C19.7067 178.667 22.7467 174.08 25.84 170.88C28.9867 167.627 32.1333 166 35.28 166C41.6267 166 47.4667 171.893 52.8 183.68C58.1333 195.413 62.6667 212.427 66.4 234.72L52.24 236.64C51.6 233.12 50.9067 229.52 50.16 225.84C49.4133 222.107 48.64 218.48 47.84 214.96C46.56 214.907 45.1733 214.88 43.68 214.88C41.0667 214.88 38.2933 214.933 35.36 215.04C32.48 215.147 29.6267 215.333 26.8 215.6C24.0267 215.813 21.44 216.053 19.04 216.32C18.0267 219.733 17.04 223.2 16.08 226.72C15.1733 230.187 14.3733 233.547 13.68 236.8ZM28.4 190.08C27.2267 192.587 25.6533 196.64 23.68 202.24C25.9733 201.973 28.4 201.787 30.96 201.68C33.52 201.52 36.0267 201.44 38.48 201.44C40.56 201.44 42.56 201.493 44.48 201.6C43.7333 198.88 43.0133 196.453 42.32 194.32C41.68 192.187 41.0933 190.507 40.56 189.28C39.44 186.4 38.4533 184.373 37.6 183.2C36.7467 181.973 35.8667 181.36 34.96 181.36C34 181.36 33.04 182 32.08 183.28C31.12 184.507 29.8933 186.773 28.4 190.08Z" fill="#0E0040"/>
</svg>
