<svg width="223" height="239" viewBox="0 0 223 239" fill="none" xmlns="http://www.w3.org/2000/svg">
<path d="M214.289 198.867C214.343 198.973 214.476 199.133 214.689 199.347C216.023 200.733 217.036 202.307 217.729 204.067C218.476 205.827 218.983 207.64 219.249 209.507C219.409 210.253 219.569 211.08 219.729 211.987C219.889 212.893 219.916 213.773 219.809 214.627C219.756 215.533 219.516 216.333 219.089 217.027C218.716 217.72 218.023 218.2 217.009 218.467C216.103 218.733 215.223 218.653 214.369 218.227C213.516 217.8 212.876 217.187 212.449 216.387C212.129 215.747 211.969 215.08 211.969 214.387C211.969 213.693 211.943 213 211.889 212.307C211.783 210.173 211.383 208.147 210.689 206.227C210.316 205.267 209.836 204.36 209.249 203.507C208.663 202.653 207.889 202.067 206.929 201.747C205.916 201.373 204.876 201.373 203.809 201.747C202.796 202.067 201.863 202.547 201.009 203.187C199.516 204.36 198.289 205.773 197.329 207.427C196.423 209.08 195.676 210.813 195.089 212.627C194.823 213.533 194.529 214.413 194.209 215.267C193.943 216.12 193.436 216.84 192.689 217.427C192.209 217.853 191.623 218.147 190.929 218.307C190.236 218.467 189.569 218.467 188.929 218.307C188.289 218.093 187.703 217.747 187.169 217.267C186.689 216.84 186.316 216.307 186.049 215.667C185.889 215.293 185.783 214.92 185.729 214.547C185.676 214.227 185.596 213.853 185.489 213.427C184.849 207.987 184.556 202.573 184.609 197.187C184.663 191.747 185.116 186.307 185.969 180.867C186.076 180.387 186.183 179.907 186.289 179.427C186.396 178.893 186.636 178.44 187.009 178.067C187.436 177.64 187.996 177.4 188.689 177.347C189.383 177.24 190.049 177.267 190.689 177.427C191.329 177.587 191.916 177.88 192.449 178.307C192.983 178.68 193.383 179.187 193.649 179.827C193.863 180.307 193.943 180.813 193.889 181.347C193.889 181.88 193.836 182.387 193.729 182.867C193.249 185.853 192.903 188.813 192.689 191.747C192.476 194.68 192.396 197.64 192.449 200.627C193.783 199.027 195.383 197.72 197.249 196.707C199.169 195.693 201.196 195.107 203.329 194.947C205.356 194.84 207.329 195.133 209.249 195.827C211.169 196.467 212.849 197.48 214.289 198.867Z" fill="#0E0040"/>
<path d="M180.429 202.867C180.375 204.467 180.375 206.067 180.429 207.667C180.482 209.213 180.589 210.787 180.749 212.387C180.802 212.867 180.882 213.347 180.989 213.827C181.095 214.36 181.149 214.84 181.149 215.267C181.149 215.693 181.069 216.12 180.909 216.547C180.749 216.973 180.429 217.347 179.949 217.667C179.255 218.147 178.482 218.413 177.629 218.467C176.775 218.52 176.002 218.307 175.309 217.827C174.562 217.347 173.975 216.68 173.549 215.827C173.122 214.973 172.775 214.093 172.509 213.187C171.175 213.88 169.842 214.52 168.509 215.107C167.175 215.747 165.815 216.333 164.429 216.867C162.935 217.4 161.415 217.8 159.869 218.067C158.322 218.387 156.775 218.413 155.229 218.147C154.002 217.933 152.829 217.507 151.709 216.867C150.589 216.28 149.602 215.533 148.749 214.627C147.895 213.72 147.175 212.68 146.589 211.507C146.055 210.387 145.709 209.187 145.549 207.907C145.389 206.627 145.469 205.373 145.789 204.147C146.109 202.92 146.589 201.773 147.229 200.707C147.869 199.587 148.642 198.6 149.549 197.747C150.509 196.893 151.575 196.227 152.749 195.747C154.455 195.053 156.242 194.76 158.109 194.867C160.029 194.973 161.842 195.373 163.549 196.067C165.255 196.707 166.829 197.587 168.269 198.707C169.762 199.773 171.175 200.973 172.509 202.307C172.669 200.173 172.829 198.067 172.989 195.987C173.149 193.907 173.202 191.8 173.149 189.667C173.149 188.92 173.069 188.147 172.909 187.347C172.802 186.547 172.482 185.853 171.949 185.267C171.309 184.627 170.402 184.173 169.229 183.907C167.202 183.427 165.202 183.64 163.229 184.547C161.255 185.4 159.735 186.733 158.669 188.547C158.509 188.813 158.322 189.107 158.109 189.427C157.949 189.747 157.735 190.04 157.469 190.307C156.882 190.947 156.109 191.24 155.149 191.187C154.189 191.133 153.335 190.893 152.589 190.467C152.162 190.2 151.762 189.88 151.389 189.507C151.069 189.133 150.855 188.707 150.749 188.227C150.642 187.693 150.642 187.187 150.749 186.707C150.855 186.173 151.042 185.693 151.309 185.267C152.535 182.867 154.349 181 156.749 179.667C159.149 178.28 161.709 177.453 164.429 177.187C165.869 177.08 167.309 177.107 168.749 177.267C170.189 177.373 171.602 177.72 172.989 178.307C174.322 178.893 175.549 179.667 176.669 180.627C177.789 181.533 178.695 182.627 179.389 183.907C180.455 185.88 180.989 188.013 180.989 190.307C180.989 192.547 180.909 194.787 180.749 197.027C180.642 198.04 180.562 199.027 180.509 199.987C180.509 200.947 180.482 201.907 180.429 202.867ZM158.029 211.427C159.682 211.053 161.389 210.547 163.149 209.907C164.909 209.213 166.402 208.333 167.629 207.267C167.255 206.36 166.535 205.453 165.469 204.547C164.455 203.64 163.522 202.947 162.669 202.467C161.602 201.88 160.455 201.56 159.229 201.507C158.055 201.4 156.962 201.667 155.949 202.307C154.882 203 154.135 203.987 153.709 205.267C153.335 206.547 153.282 207.8 153.549 209.027C153.655 209.507 153.789 209.987 153.949 210.467C154.162 210.893 154.482 211.213 154.909 211.427C155.335 211.693 155.762 211.8 156.189 211.747C156.615 211.747 157.042 211.693 157.469 211.587L158.029 211.427Z" fill="#0E0040"/>
<path d="M142.719 177.027C143.252 177.08 143.759 177.24 144.239 177.507C144.772 177.773 145.199 178.067 145.519 178.387C145.786 178.653 146.052 179.027 146.319 179.507C146.586 179.987 146.692 180.44 146.639 180.867C146.532 181.133 146.452 181.427 146.399 181.747C146.399 182.067 146.372 182.387 146.319 182.707C145.412 187.72 144.266 192.733 142.879 197.747C141.546 202.76 139.679 207.533 137.279 212.067C136.692 213.133 136.052 214.147 135.359 215.107C134.719 216.12 133.892 216.947 132.879 217.587C131.652 218.28 130.452 218.6 129.279 218.547C128.159 218.493 127.119 218.173 126.159 217.587C125.199 217 124.346 216.2 123.599 215.187C122.906 214.227 122.372 213.187 121.999 212.067C121.572 210.84 121.279 209.56 121.119 208.227C120.959 206.893 120.746 205.587 120.479 204.307C120.212 202.973 119.972 201.667 119.759 200.387C119.546 199.107 119.306 197.8 119.039 196.467C118.612 193.747 118.212 191.027 117.839 188.307C117.466 185.587 117.092 182.867 116.719 180.147C116.666 179.72 116.772 179.32 117.039 178.947C117.306 178.573 117.599 178.253 117.919 177.987C118.346 177.667 118.799 177.48 119.279 177.427C119.759 177.32 120.239 177.293 120.719 177.347C121.786 177.507 122.719 177.96 123.519 178.707C123.839 179.027 124.079 179.427 124.239 179.907C124.452 180.28 124.559 180.707 124.559 181.187C124.666 181.987 124.772 182.787 124.879 183.587C124.986 184.387 125.092 185.187 125.199 185.987C125.306 186.893 125.412 187.827 125.519 188.787C125.679 189.693 125.839 190.6 125.999 191.507C126.266 193.32 126.532 195.133 126.799 196.947C127.119 198.707 127.466 200.493 127.839 202.307C127.999 203.213 128.159 204.12 128.319 205.027C128.479 205.88 128.639 206.76 128.799 207.667L129.279 210.067C129.386 209.96 129.439 209.853 129.439 209.747C129.492 209.64 129.572 209.533 129.679 209.427C130.159 208.573 130.586 207.693 130.959 206.787C131.332 205.88 131.706 204.973 132.079 204.067C133.466 200.493 134.666 196.867 135.679 193.187C136.746 189.507 137.652 185.773 138.399 181.987C138.506 181.613 138.559 181.267 138.559 180.947C138.612 180.573 138.692 180.2 138.799 179.827C138.799 179.187 138.986 178.653 139.359 178.227L139.999 177.587C140.426 177.32 140.879 177.16 141.359 177.107C141.839 177 142.292 176.973 142.719 177.027Z" fill="#0E0040"/>
<path d="M112.538 202.867C112.485 204.467 112.485 206.067 112.538 207.667C112.591 209.213 112.698 210.787 112.858 212.387C112.911 212.867 112.991 213.347 113.098 213.827C113.205 214.36 113.258 214.84 113.258 215.267C113.258 215.693 113.178 216.12 113.018 216.547C112.858 216.973 112.538 217.347 112.058 217.667C111.365 218.147 110.591 218.413 109.738 218.467C108.885 218.52 108.111 218.307 107.418 217.827C106.671 217.347 106.085 216.68 105.658 215.827C105.231 214.973 104.885 214.093 104.618 213.187C103.285 213.88 101.951 214.52 100.618 215.107C99.2848 215.747 97.9248 216.333 96.5381 216.867C95.0448 217.4 93.5248 217.8 91.9781 218.067C90.4315 218.387 88.8848 218.413 87.3381 218.147C86.1115 217.933 84.9381 217.507 83.8181 216.867C82.6981 216.28 81.7115 215.533 80.8581 214.627C80.0048 213.72 79.2848 212.68 78.6981 211.507C78.1648 210.387 77.8181 209.187 77.6581 207.907C77.4981 206.627 77.5781 205.373 77.8981 204.147C78.2181 202.92 78.6981 201.773 79.3381 200.707C79.9781 199.587 80.7515 198.6 81.6581 197.747C82.6181 196.893 83.6848 196.227 84.8581 195.747C86.5648 195.053 88.3515 194.76 90.2181 194.867C92.1381 194.973 93.9515 195.373 95.6581 196.067C97.3648 196.707 98.9381 197.587 100.378 198.707C101.871 199.773 103.285 200.973 104.618 202.307C104.778 200.173 104.938 198.067 105.098 195.987C105.258 193.907 105.311 191.8 105.258 189.667C105.258 188.92 105.178 188.147 105.018 187.347C104.911 186.547 104.591 185.853 104.058 185.267C103.418 184.627 102.511 184.173 101.338 183.907C99.3115 183.427 97.3115 183.64 95.3381 184.547C93.3648 185.4 91.8448 186.733 90.7781 188.547C90.6181 188.813 90.4315 189.107 90.2181 189.427C90.0581 189.747 89.8448 190.04 89.5781 190.307C88.9915 190.947 88.2181 191.24 87.2581 191.187C86.2981 191.133 85.4448 190.893 84.6981 190.467C84.2715 190.2 83.8715 189.88 83.4981 189.507C83.1781 189.133 82.9648 188.707 82.8581 188.227C82.7515 187.693 82.7515 187.187 82.8581 186.707C82.9648 186.173 83.1515 185.693 83.4181 185.267C84.6448 182.867 86.4581 181 88.8581 179.667C91.2581 178.28 93.8181 177.453 96.5381 177.187C97.9781 177.08 99.4181 177.107 100.858 177.267C102.298 177.373 103.711 177.72 105.098 178.307C106.431 178.893 107.658 179.667 108.778 180.627C109.898 181.533 110.805 182.627 111.498 183.907C112.565 185.88 113.098 188.013 113.098 190.307C113.098 192.547 113.018 194.787 112.858 197.027C112.751 198.04 112.671 199.027 112.618 199.987C112.618 200.947 112.591 201.907 112.538 202.867ZM90.1381 211.427C91.7915 211.053 93.4981 210.547 95.2581 209.907C97.0181 209.213 98.5115 208.333 99.7381 207.267C99.3648 206.36 98.6448 205.453 97.5781 204.547C96.5648 203.64 95.6315 202.947 94.7781 202.467C93.7115 201.88 92.5648 201.56 91.3381 201.507C90.1648 201.4 89.0715 201.667 88.0581 202.307C86.9915 203 86.2448 203.987 85.8181 205.267C85.4448 206.547 85.3915 207.8 85.6581 209.027C85.7648 209.507 85.8981 209.987 86.0581 210.467C86.2715 210.893 86.5915 211.213 87.0181 211.427C87.4448 211.693 87.8715 211.8 88.2981 211.747C88.7248 211.747 89.1515 211.693 89.5781 211.587L90.1381 211.427Z" fill="#0E0040"/>
<path d="M68.8204 198.867C68.8738 198.973 69.0071 199.133 69.2204 199.347C70.5538 200.733 71.5671 202.307 72.2604 204.067C73.0071 205.827 73.5138 207.64 73.7804 209.507C73.9404 210.253 74.1004 211.08 74.2604 211.987C74.4204 212.893 74.4471 213.773 74.3404 214.627C74.2871 215.533 74.0471 216.333 73.6204 217.027C73.2471 217.72 72.5538 218.2 71.5404 218.467C70.6338 218.733 69.7538 218.653 68.9004 218.227C68.0471 217.8 67.4071 217.187 66.9804 216.387C66.6604 215.747 66.5004 215.08 66.5004 214.387C66.5004 213.693 66.4738 213 66.4204 212.307C66.3138 210.173 65.9138 208.147 65.2204 206.227C64.8471 205.267 64.3671 204.36 63.7804 203.507C63.1938 202.653 62.4204 202.067 61.4604 201.747C60.4471 201.373 59.4071 201.373 58.3404 201.747C57.3271 202.067 56.3938 202.547 55.5404 203.187C54.0471 204.36 52.8204 205.773 51.8604 207.427C50.9538 209.08 50.2071 210.813 49.6204 212.627C49.3538 213.533 49.0604 214.413 48.7404 215.267C48.4738 216.12 47.9671 216.84 47.2204 217.427C46.7404 217.853 46.1538 218.147 45.4604 218.307C44.7671 218.467 44.1004 218.467 43.4604 218.307C42.8204 218.093 42.2338 217.747 41.7004 217.267C41.2204 216.84 40.8471 216.307 40.5804 215.667C40.4204 215.293 40.3138 214.92 40.2604 214.547C40.2071 214.227 40.1271 213.853 40.0204 213.427C39.3804 207.987 39.0871 202.573 39.1404 197.187C39.1938 191.747 39.6471 186.307 40.5004 180.867C40.6071 180.387 40.7138 179.907 40.8204 179.427C40.9271 178.893 41.1671 178.44 41.5404 178.067C41.9671 177.64 42.5271 177.4 43.2204 177.347C43.9138 177.24 44.5804 177.267 45.2204 177.427C45.8604 177.587 46.4471 177.88 46.9804 178.307C47.5138 178.68 47.9138 179.187 48.1804 179.827C48.3938 180.307 48.4738 180.813 48.4204 181.347C48.4204 181.88 48.3671 182.387 48.2604 182.867C47.7804 185.853 47.4338 188.813 47.2204 191.747C47.0071 194.68 46.9271 197.64 46.9804 200.627C48.3138 199.027 49.9138 197.72 51.7804 196.707C53.7004 195.693 55.7271 195.107 57.8604 194.947C59.8871 194.84 61.8604 195.133 63.7804 195.827C65.7004 196.467 67.3804 197.48 68.8204 198.867Z" fill="#0E0040"/>
<path d="M34.96 202.867C34.9067 204.467 34.9067 206.067 34.96 207.667C35.0133 209.213 35.12 210.787 35.28 212.387C35.3333 212.867 35.4133 213.347 35.52 213.827C35.6267 214.36 35.68 214.84 35.68 215.267C35.68 215.693 35.6 216.12 35.44 216.547C35.28 216.973 34.96 217.347 34.48 217.667C33.7867 218.147 33.0133 218.413 32.16 218.467C31.3067 218.52 30.5333 218.307 29.84 217.827C29.0933 217.347 28.5067 216.68 28.08 215.827C27.6533 214.973 27.3067 214.093 27.04 213.187C25.7067 213.88 24.3733 214.52 23.04 215.107C21.7067 215.747 20.3467 216.333 18.96 216.867C17.4667 217.4 15.9467 217.8 14.4 218.067C12.8533 218.387 11.3067 218.413 9.76 218.147C8.53333 217.933 7.36 217.507 6.24 216.867C5.12 216.28 4.13333 215.533 3.28 214.627C2.42667 213.72 1.70667 212.68 1.12 211.507C0.586667 210.387 0.24 209.187 0.08 207.907C-0.08 206.627 0 205.373 0.32 204.147C0.64 202.92 1.12 201.773 1.76 200.707C2.4 199.587 3.17333 198.6 4.08 197.747C5.04 196.893 6.10667 196.227 7.28 195.747C8.98667 195.053 10.7733 194.76 12.64 194.867C14.56 194.973 16.3733 195.373 18.08 196.067C19.7867 196.707 21.36 197.587 22.8 198.707C24.2933 199.773 25.7067 200.973 27.04 202.307C27.2 200.173 27.36 198.067 27.52 195.987C27.68 193.907 27.7333 191.8 27.68 189.667C27.68 188.92 27.6 188.147 27.44 187.347C27.3333 186.547 27.0133 185.853 26.48 185.267C25.84 184.627 24.9333 184.173 23.76 183.907C21.7333 183.427 19.7333 183.64 17.76 184.547C15.7867 185.4 14.2667 186.733 13.2 188.547C13.04 188.813 12.8533 189.107 12.64 189.427C12.48 189.747 12.2667 190.04 12 190.307C11.4133 190.947 10.64 191.24 9.68 191.187C8.72 191.133 7.86667 190.893 7.12 190.467C6.69333 190.2 6.29333 189.88 5.92 189.507C5.6 189.133 5.38667 188.707 5.28 188.227C5.17333 187.693 5.17333 187.187 5.28 186.707C5.38667 186.173 5.57333 185.693 5.84 185.267C7.06667 182.867 8.88 181 11.28 179.667C13.68 178.28 16.24 177.453 18.96 177.187C20.4 177.08 21.84 177.107 23.28 177.267C24.72 177.373 26.1333 177.72 27.52 178.307C28.8533 178.893 30.08 179.667 31.2 180.627C32.32 181.533 33.2267 182.627 33.92 183.907C34.9867 185.88 35.52 188.013 35.52 190.307C35.52 192.547 35.44 194.787 35.28 197.027C35.1733 198.04 35.0933 199.027 35.04 199.987C35.04 200.947 35.0133 201.907 34.96 202.867ZM12.56 211.427C14.2133 211.053 15.92 210.547 17.68 209.907C19.44 209.213 20.9333 208.333 22.16 207.267C21.7867 206.36 21.0667 205.453 20 204.547C18.9867 203.64 18.0533 202.947 17.2 202.467C16.1333 201.88 14.9867 201.56 13.76 201.507C12.5867 201.4 11.4933 201.667 10.48 202.307C9.41333 203 8.66667 203.987 8.24 205.267C7.86667 206.547 7.81333 207.8 8.08 209.027C8.18667 209.507 8.32 209.987 8.48 210.467C8.69333 210.893 9.01333 211.213 9.44 211.427C9.86667 211.693 10.2933 211.8 10.72 211.747C11.1467 211.747 11.5733 211.693 12 211.587L12.56 211.427Z" fill="#0E0040"/>
<path d="M103.021 10.3925C142.838 6.26287 178.466 35.187 182.605 75.0028C186.746 114.818 157.831 150.454 118.016 154.604C78.1874 158.756 42.5361 129.828 38.3945 89.9979C34.2529 50.1677 63.1901 14.5239 103.021 10.3925Z" fill="#0E0040"/>
<path d="M104.921 39.8828C112.238 39.2243 119.864 40.9663 126.382 44.2987C136.038 49.2296 143.329 57.8082 146.639 68.1327C151.6 83.5956 148.12 94.9826 141.121 108.611C146.522 110.024 148.671 110.29 154.027 111.352C154.245 113.834 154.725 119.753 153.252 121.595C149.369 126.447 136.54 121.505 132.623 118.525C129.449 121.305 125.941 123.68 122.18 125.592C107.838 132.798 87.2628 132.357 75.3091 120.84C66.7687 112.611 64.9674 101.967 68.6787 91.0563C69.6192 88.9977 70.837 87.0772 72.2982 85.3487C80.4026 75.7685 94.5023 74.8763 105.182 80.2958C111.258 83.3792 115.007 87.9515 119.744 92.6147C123.192 96.0248 126.777 99.2944 130.488 102.416C134.983 94.6519 137.155 87.2037 135.886 78.1484C133.078 58.1198 111.96 46.1972 94.0484 56.9871C89.5237 59.7126 86.9064 63.9305 83.8341 68.0863C78.4217 66.4934 76.6172 65.8409 72.2786 62.4475C78.2688 48.6368 90.5298 41.7812 104.921 39.8828Z" fill="#D7FF81"/>
<path d="M90.8042 90.245C102.155 89.8981 106.42 96.8004 113.671 104.144C116.475 106.984 118.645 108.914 121.765 111.412C117.777 113.734 114.823 115.217 110.451 116.636C102.459 118.592 92.3975 117.907 85.7593 112.774C80.7181 108.875 76.9444 100.319 81.4809 94.6917C83.9685 91.6063 87.0484 90.6894 90.8042 90.245Z" fill="#0E0040"/>
</svg>
