<svg xmlns="http://www.w3.org/2000/svg" width="192" height="192" viewBox="0 0 95 95">
  <path d="M42.2703 0.255193C68.1552 -2.42951 91.3169 16.3741 94.0079 42.2583C96.6999 68.1422 77.9019 91.3092 52.0187 94.0072C26.1258 96.7062 2.94889 77.9002 0.256492 52.0066C-2.43601 26.113 16.3761 2.94099 42.2703 0.255193Z" fill="#0E0040"/>
  <path d="M43.5052 19.4269C48.2623 18.9988 53.2199 20.1313 57.4571 22.2977C63.7345 25.5033 68.4742 31.0802 70.6261 37.7922C73.8511 47.8446 71.5891 55.2473 67.0389 64.1073C70.5501 65.0254 71.9471 65.1988 75.4291 65.8891C75.5711 67.5023 75.8831 71.3503 74.9251 72.5483C72.4011 75.7023 64.0611 72.4893 61.5144 70.5523C59.4513 72.3593 57.1707 73.9033 54.7255 75.1463C45.402 79.8313 32.0258 79.5443 24.2547 72.0573C18.7026 66.7073 17.5316 59.7876 19.9443 52.6948C20.5557 51.3565 21.3474 50.108 22.2973 48.9843C27.566 42.7562 36.7322 42.1762 43.6749 45.6994C47.6249 47.7039 50.0625 50.6764 53.1418 53.7079C55.3835 55.9248 57.7137 58.0504 60.1268 60.0795C63.0486 55.0323 64.461 50.1902 63.6357 44.3034C61.8101 31.2828 48.0815 23.5319 36.4371 30.5464C33.4956 32.3183 31.7941 35.0603 29.7968 37.762C26.2782 36.7265 25.1051 36.3023 22.2846 34.0962C26.1788 25.1179 34.1497 20.6611 43.5052 19.4269Z" fill="#D7FF81"/>
</svg>
